# xmcd
#
# Track frame offsets: 
#        150
#        18237
#        47460
#        65495
#        84905
#        109422
#        133755
#        154140
#        179307
#        205842
#
# Disc length: 3115 seconds
#
# Revision: 1
# Processed by: cddbd v1.5.2PL0 Copyright (c) Steve Scherf et al.
# Submitted via: ExactAudioCopy v1.0b3
#
DISCID=7f0c290a
DTITLE=Thien Trang - Neo Duong Ky Niem
DYEAR=1990
DGENRE=Country
TTITLE0=Nen huong yeu
TTITLE1=Ngay tan chinh chien
TTITLE2=Thuong ve co do
TTITLE3=Chuyen ngay xua 2
TTITLE4=Hoa no ve dem
TTITLE5=Thuong ve quan tro
TTITLE6=Tra toi ve
TTITLE7=Cuoc tinh da mat
TTITLE8=Neo duong ky niem
TTITLE9=Ve duoi mai nha
EXTD=
EXTT0=
EXTT1=
EXTT2=
EXTT3=
EXTT4=
EXTT5=
EXTT6=
EXTT7=
EXTT8=
EXTT9=
PLAYORDER=
